<svg width="10" height="11" viewBox="0 0 10 11" fill="none" xmlns="http://www.w3.org/2000/svg">
<path d="M8.60802 2.00427L8.93935 5.44516C9.15402 7.67738 7.48102 9.66461 5.24879 9.88005C3.05857 10.09 1.07446 8.48938 0.863682 6.29916C0.813262 5.7783 0.865992 5.25262 1.01886 4.75215C1.17173 4.25169 1.42173 3.78626 1.75459 3.38247C2.08744 2.97869 2.49661 2.64446 2.95871 2.39891C3.42081 2.15335 3.92678 2.00128 4.44768 1.95138L8.11568 1.59827C8.17467 1.59259 8.2342 1.59858 8.29087 1.61591C8.34754 1.63324 8.40025 1.66156 8.44597 1.69927C8.49169 1.73697 8.52953 1.78331 8.55734 1.83565C8.58514 1.88798 8.60236 1.94528 8.60802 2.00427Z" stroke="white" stroke-width="1.5" stroke-linecap="round" stroke-linejoin="round"/>
</svg>
